<svg xmlns="http://www.w3.org/2000/svg" viewBox="0 0 1200 720" role="img" aria-labelledby="title desc">
  <title id="title">콘텐츠 관리 어드민 화면</title>
  <desc id="desc">콘텐츠 관리 목록과 등록 모달, 기능 선택 드롭다운을 표현한 포트폴리오용 화면 이미지</desc>
  <style>
    text { font-family: -apple-system, BlinkMacSystemFont, "Segoe UI", sans-serif; fill: #30343b; }
    .muted { fill: #737b85; }
    .label { font-size: 17px; font-weight: 800; }
    .body { font-size: 16px; font-weight: 700; }
    .small { font-size: 12px; font-weight: 800; }
    .title { font-size: 26px; font-weight: 900; }
    .field { fill: #fff; stroke: #d4d8dd; stroke-width: 1.5; }
    .line { stroke: #e3e6ea; stroke-width: 1; }
    .btn-blue { fill: #2f78b7; }
    .btn-red { fill: #c9423d; }
    .btn-gray { fill: #f2f3f5; }
  </style>
  <rect width="1200" height="720" fill="#f7f9fb"/>
  <text x="36" y="54" class="title">콘텐츠 관리</text>
  <line x1="36" y1="82" x2="1164" y2="82" class="line"/>
  <text x="160" y="120" class="label">운영여부</text>
  <rect x="240" y="96" width="260" height="42" class="field"/>
  <text x="264" y="123" class="body muted">전체</text>
  <text x="665" y="120" class="label">브랜드</text>
  <rect x="735" y="96" width="180" height="42" class="field"/>
  <text x="758" y="123" class="body muted">투어비스</text>
  <text x="160" y="173" class="label">페이지명</text>
  <rect x="240" y="149" width="260" height="42" class="field"/>
  <text x="160" y="226" class="label">카테고리</text>
  <rect x="240" y="202" width="260" height="42" class="field"/>
  <text x="264" y="229" class="body muted">전체</text>
  <text x="650" y="226" class="label">적용플랫폼</text>
  <rect x="735" y="202" width="180" height="42" class="field"/>
  <text x="758" y="229" class="body muted">전체</text>
  <rect x="512" y="272" width="58" height="42" rx="4" class="btn-gray"/>
  <text x="525" y="299" class="body muted">초기화</text>
  <rect x="595" y="272" width="58" height="42" rx="4" class="btn-blue"/>
  <text x="613" y="299" class="body" fill="#fff">검색</text>
  <rect x="680" y="272" width="58" height="42" rx="4" class="btn-red"/>
  <text x="698" y="299" class="body" fill="#fff">등록</text>
  <line x1="36" y1="350" x2="1164" y2="350" class="line"/>
  <text x="66" y="388" class="body muted">총 28개의 결과값이 있습니다.</text>
  <rect x="50" y="414" width="1100" height="184" fill="#fff" stroke="#e3e6ea"/>
  <rect x="50" y="414" width="1100" height="38" fill="#f1f3f5"/>
  <text x="80" y="438" class="small">No.</text>
  <text x="170" y="438" class="small">페이지명</text>
  <text x="325" y="438" class="small">운영</text>
  <text x="430" y="438" class="small">카테고리</text>
  <text x="535" y="438" class="small">적용플랫폼</text>
  <text x="705" y="438" class="small">운영기간</text>
  <text x="930" y="438" class="small">등록일</text>
  <g class="muted">
    <text x="82" y="482" class="body">1</text>
    <text x="170" y="482" class="body">공통 메인 프로모션</text>
    <text x="82" y="524" class="body">2</text>
    <text x="170" y="524" class="body">일본관</text>
    <text x="82" y="566" class="body">3</text>
    <text x="170" y="566" class="body">투어비스 퀵서치 메뉴</text>
  </g>
  <g filter="url(#shadow)">
    <rect x="146" y="258" width="908" height="400" rx="12" fill="#fff"/>
    <rect x="146" y="258" width="908" height="48" rx="12" fill="#202225"/>
    <rect x="146" y="306" width="908" height="54" fill="#253942"/>
    <text x="164" y="339" class="title" fill="#fff">콘텐츠 관리</text>
    <text x="994" y="339" class="body" fill="#fff">Close</text>
    <text x="245" y="410" class="label">브랜드</text>
    <rect x="318" y="386" width="136" height="42" class="field"/>
    <text x="343" y="413" class="body muted">투어비스</text>
    <text x="520" y="410" class="label">세팅페이지 선택</text>
    <rect x="645" y="386" width="270" height="42" class="field"/>
    <text x="668" y="413" class="body muted">일본관</text>
    <text x="245" y="472" class="label">카테고리</text>
    <rect x="318" y="448" width="180" height="42" fill="#f0f1f3" stroke="#d4d8dd"/>
    <text x="340" y="475" class="body muted">투어비스 공통</text>
    <text x="245" y="534" class="label">페이지이름</text>
    <rect x="318" y="510" width="600" height="42" class="field"/>
    <text x="245" y="596" class="label">기능선택</text>
    <rect x="316" y="574" width="290" height="132" rx="5" fill="#595b5f"/>
    <text x="342" y="602" class="body" fill="#fff">✓ 공통 캘린더 테스트</text>
    <text x="342" y="632" class="body" fill="#fff">공통 픽토그램</text>
    <text x="342" y="662" class="body" fill="#fff">모바일 메인 AD 배너</text>
    <text x="342" y="692" class="body" fill="#fff">공통 상단 배너</text>
  </g>
  <defs>
    <filter id="shadow" x="-20%" y="-20%" width="140%" height="140%">
      <feDropShadow dx="0" dy="12" stdDeviation="14" flood-color="#1c242b" flood-opacity="0.28"/>
    </filter>
  </defs>
</svg>
