<svg xmlns="http://www.w3.org/2000/svg" viewBox="0 0 1200 720" role="img" aria-labelledby="title desc">
  <title id="title">테마 관리 어드민 화면</title>
  <desc id="desc">테마 관리 목록과 상품군 선택, 공급사/카테고리/국가 선택 모달을 표현한 화면 이미지</desc>
  <style>
    text { font-family: -apple-system, BlinkMacSystemFont, "Segoe UI", sans-serif; fill: #30343b; }
    .muted { fill: #737b85; }
    .label { font-size: 17px; font-weight: 800; }
    .body { font-size: 16px; font-weight: 700; }
    .small { font-size: 12px; font-weight: 800; }
    .title { font-size: 26px; font-weight: 900; }
    .field { fill: #fff; stroke: #d4d8dd; stroke-width: 1.5; }
    .line { stroke: #e3e6ea; stroke-width: 1; }
    .btn-blue { fill: #2f78b7; }
    .btn-green { fill: #45a049; }
    .btn-red { fill: #c9423d; }
  </style>
  <rect width="1200" height="720" fill="#f7f9fb"/>
  <text x="36" y="54" class="title">테마 관리</text>
  <line x1="36" y1="82" x2="1164" y2="82" class="line"/>
  <text x="88" y="124" class="label">등록일</text>
  <rect x="155" y="98" width="172" height="44" class="field"/>
  <text x="175" y="126" class="body muted">날짜를 선택하세요.</text>
  <text x="420" y="124" class="label">검색노출</text>
  <rect x="500" y="98" width="172" height="44" class="field"/>
  <text x="522" y="126" class="body muted">전체</text>
  <text x="755" y="124" class="label">테마명</text>
  <rect x="826" y="98" width="172" height="44" class="field"/>
  <text x="88" y="176" class="label">브랜드</text>
  <rect x="155" y="150" width="172" height="44" class="field"/>
  <text x="180" y="178" class="body muted">전체</text>
  <text x="420" y="176" class="label">카테고리</text>
  <rect x="500" y="150" width="172" height="44" class="field"/>
  <text x="522" y="178" class="body muted">전체</text>
  <text x="755" y="176" class="label">속성</text>
  <rect x="826" y="150" width="172" height="44" class="field"/>
  <text x="848" y="178" class="body muted">전체</text>
  <text x="88" y="228" class="label">UTM 조회</text>
  <rect x="155" y="202" width="172" height="44" class="field"/>
  <rect x="520" y="280" width="58" height="42" rx="4" class="btn-blue"/>
  <text x="538" y="307" class="body" fill="#fff">초기화</text>
  <rect x="608" y="280" width="58" height="42" rx="4" class="btn-green"/>
  <text x="626" y="307" class="body" fill="#fff">검색</text>
  <rect x="696" y="280" width="58" height="42" rx="4" class="btn-red"/>
  <text x="714" y="307" class="body" fill="#fff">등록</text>
  <line x1="36" y1="350" x2="1164" y2="350" class="line"/>
  <text x="66" y="386" class="body muted">총 1744개의 결과값이 있습니다.</text>
  <rect x="50" y="414" width="1100" height="180" fill="#fff" stroke="#e3e6ea"/>
  <rect x="50" y="414" width="1100" height="38" fill="#f1f3f5"/>
  <text x="82" y="438" class="small">No.</text>
  <text x="160" y="438" class="small">테마 ID</text>
  <text x="300" y="438" class="small">브랜드</text>
  <text x="420" y="438" class="small">카테고리</text>
  <text x="570" y="438" class="small">테마명</text>
  <text x="835" y="438" class="small">UTM_CONTENT</text>
  <g filter="url(#shadow)">
    <rect x="24" y="314" width="1152" height="392" rx="12" fill="#fff"/>
    <rect x="24" y="314" width="1152" height="48" rx="12" fill="#202225"/>
    <rect x="24" y="362" width="1152" height="54" fill="#101820"/>
    <text x="584" y="341" text-anchor="middle" class="small" fill="#fff">테마 등록</text>
    <text x="42" y="398" class="title" fill="#fff">테마 등록</text>
    <text x="1124" y="398" class="body" fill="#fff">Close</text>
    <text x="70" y="456" class="body">◉ 투액</text>
    <text x="210" y="456" class="body">○ 호텔</text>
    <text x="345" y="456" class="body">○ 패키지</text>
    <text x="520" y="456" class="body">○ 항공</text>
    <text x="182" y="500" class="body">공급사</text>
    <text x="430" y="500" class="body">1depth 카테고리</text>
    <text x="720" y="500" class="body">2depth 카테고리</text>
    <text x="1010" y="500" class="body">국가</text>
    <rect x="52" y="520" width="288" height="136" class="field"/>
    <rect x="352" y="520" width="288" height="136" class="field"/>
    <rect x="652" y="520" width="288" height="136" class="field"/>
    <rect x="952" y="520" width="180" height="136" class="field"/>
    <text x="68" y="548" class="body">전체</text>
    <text x="68" y="578" class="body muted">(주)배데이트립</text>
    <text x="68" y="608" class="body muted">(주)아름여행사</text>
    <text x="368" y="548" class="body">전체</text>
    <text x="368" y="578" class="body muted">티켓·입장권</text>
    <text x="368" y="608" class="body muted">액티비티·체험</text>
    <text x="668" y="548" class="body">전체</text>
    <text x="968" y="548" class="body">전체</text>
    <text x="968" y="578" class="body muted">가나(GH)</text>
    <text x="968" y="608" class="body muted">가봉(GA)</text>
    <text x="70" y="696" class="label">선택된 상품</text>
  </g>
  <defs>
    <filter id="shadow" x="-20%" y="-20%" width="140%" height="140%">
      <feDropShadow dx="0" dy="12" stdDeviation="14" flood-color="#1c242b" flood-opacity="0.28"/>
    </filter>
  </defs>
</svg>
